#!OML:ASF H:\GeneralSubjects\Female5\Project 1\Capture day 1\Session 1\Female5.ASF
:FULLY-SPECIFIED
:DEGREES
126
root -26.0666 15.5621 1.95137 -77.0326 84.4001 -101.266
lowerback 18.9191 1.77517 5.41572
upperback -12.4195 5.63653 3.90809
thorax -25.7972 2.01615 -0.791749
lowerneck -22.5763 -1.3857 -4.74138
upperneck 36.0914 3.69922 -6.10456
head 17.1305 0.315559 -1.02175
rclavicle -2.59414e-014 -2.38542e-014
rhumerus -41.9255 24.4245 -76.7199
rradius 56.3201
rwrist -7.2781
rhand -31.5599 -19.8084
rfingers 7.12502
rthumb -4.8238 -49.7335
lclavicle -2.59414e-014 -2.38542e-014
lhumerus -77.7352 -7.16224 88.6548
lradius 73.3851
lwrist -1.84022
lhand -29 34.6252
lfingers 7.12502
lthumb -2.35172 64.592
rfemur -11.9401 -4.26776 34.3076
rtibia 22.4009
rfoot -9.22276 -1.45953
rtoes -31.9621
lfemur -54.1811 -3.7987 -21.9358
ltibia 73.1051
lfoot -0.115204 21.7174
ltoes -75.8731
127
root -25.4906 15.6762 1.97278 -84.9066 84.4861 -108.871
lowerback 18.739 1.92697 4.9322
upperback -12.5203 5.66766 3.75942
thorax -25.851 2.09696 -0.702187
lowerneck -22.5362 -1.89985 -5.07338
upperneck 35.855 2.86733 -5.78486
head 16.9649 -0.022991 -0.989547
rclavicle -3.6477e-014 2.70347e-014
rhumerus -41.8984 23.402 -75.7592
rradius 59.2927
rwrist -8.36518
rhand -32.7177 -18.5744
rfingers 7.12502
rthumb -5.94165 -48.4711
lclavicle -3.6477e-014 2.70347e-014
lhumerus -80.2783 -7.03377 87.8066
lradius 75.5281
lwrist -0.688384
lhand -29.3843 35.702
lfingers 7.12502
lthumb -2.72283 65.6644
rfemur -7.21375 -3.1454 33.9244
rtibia 17.7394
rfoot -7.39993 -3.09472
rtoes -34.8716
lfemur -57.7417 -5.68206 -21.1918
ltibia 68.6712
lfoot -1.36392 20.9698
ltoes -76.1409
128
root -24.8739 15.7969 1.99106 -91.6534 84.4659 -115.256
lowerback 18.38 2.05661 4.53565
upperback -12.5769 5.65329 3.5469
thorax -25.6909 2.14223 -0.706208
lowerneck -22.4882 -2.34831 -5.48585
upperneck 35.6448 2.01231 -5.08761
head 16.8078 -0.330787 -0.780621
rclavicle -2.11209e-014 -2.8625e-014
rhumerus -42.4283 22.4947 -75.2429
rradius 61.9156
rwrist -8.48569
rhand -33.6683 -16.8113
rfingers 7.12502
rthumb -6.85934 -46.6802
lclavicle -2.11209e-014 -2.8625e-014
lhumerus -81.2323 -7.10387 86.9616
lradius 75.4583
lwrist 0.689143
lhand -29.6761 37.7564
lfingers 7.12502
lthumb -3.00462 67.715
rfemur -2.34821 -0.771402 34.0183
rtibia 13.0151
rfoot -5.34115 -6.19634
rtoes -34.6225
lfemur -59.8774 -7.55414 -20.1476
ltibia 62.5135
lfoot -2.16378 19.9424
ltoes -76.2111
129
root -24.2293 15.9209 2.0104 -97.2486 84.5714 -120.579
lowerback 17.7646 2.23393 3.87855
upperback -12.6566 5.60203 3.28024
thorax -25.4045 2.21946 -0.596395
lowerneck -22.3716 -2.77749 -6.01558
upperneck 35.4514 1.09703 -4.05322
head 16.6522 -0.630085 -0.415803
rclavicle 1.73937e-015 -4.21423e-014
rhumerus -43.3828 21.8487 -75.0849
rradius 63.8606
rwrist -7.59948
rhand -34.6077 -15.1057
rfingers 7.12502
rthumb -7.76609 -44.943
lclavicle 1.73937e-015 -4.21423e-014
lhumerus -82.3143 -7.33458 86.2068
lradius 75.9671
lwrist 1.80429
lhand -29.3672 37.7945
lfingers 7.12502
lthumb -2.70634 67.7571
rfemur 2.17374 2.59626 34.575
rtibia 8.71012
rfoot -2.82243 -10.9207
rtoes -31.5039
lfemur -60.7178 -9.47911 -18.999
ltibia 54.8265
lfoot -1.16977 18.7707
ltoes -76.3487
130
root -23.5644 16.0436 2.0311 -103.695 84.7483 -126.782
lowerback 17.0669 2.37684 3.00357
upperback -12.7753 5.44385 2.98442
thorax -25.1378 2.28879 -0.350882
lowerneck -22.1719 -3.11929 -6.30327
upperneck 35.2685 0.283707 -3.18193
head 16.5024 -0.875504 -0.144842
rclavicle 1.92573e-014 7.79236e-014
rhumerus -44.9299 21.6338 -75.3649
rradius 65.3523
rwrist -6.4922
rhand -35.5761 -14.1432
rfingers 7.12502
rthumb -8.70071 -43.9439
lclavicle 1.92573e-014 7.79236e-014
lhumerus -82.5436 -7.80194 85.6881
lradius 75.4691
lwrist 3.01026
lhand -29.3815 35.1519
lfingers 7.12502
lthumb -2.72016 65.1143
rfemur 6.12824 5.77268 35.4521
rtibia 5.3834
rfoot 0.608333 -17.0212
rtoes -27.7677
lfemur -60.1882 -11.6633 -17.8038
ltibia 46.1221
lfoot 0.222641 18.0666
ltoes -76.1943
131
root -22.8825 16.1592 2.05392 -109.719 84.7517 -132.53
lowerback 16.3993 2.445 2.20166
upperback -12.9376 5.23645 2.72625
thorax -24.9502 2.32895 -0.0870302
lowerneck -20.9457 -3.20464 -6.04712
upperneck 33.5326 -0.24883 -3.22193
head 15.3585 -1.04549 -0.275988
rclavicle -1.6027e-015 6.36111e-015
rhumerus -46.9515 21.7783 -76.1959
rradius 66.1037
rwrist -5.57382
rhand -36.4549 -13.5264
rfingers 7.12502
rthumb -9.54878 -43.29
lclavicle -1.6027e-015 6.36111e-015
lhumerus -82.5084 -8.31922 85.2038
lradius 74.8173
lwrist 4.54128
lhand -29.1878 31.9298
lfingers 7.12502
lthumb -2.53309 61.8945
rfemur 9.30171 8.02657 36.5766
rtibia 3.34781
rfoot 1.3535 -24.273
rtoes -13.0531
lfemur -58.657 -13.6742 -16.8061
ltibia 38.1227
lfoot 2.95996 19.5391
ltoes -76.3755
